<?xml version="1.0" encoding="iso-8859-1"?>
<!-- Generator: Adobe Illustrator 24.2.3, SVG Export Plug-In . SVG Version: 6.00 Build 0)  -->
<svg version="1.1" id="&#x30EC;&#x30A4;&#x30E4;&#x30FC;_1"
	 xmlns="http://www.w3.org/2000/svg" xmlns:xlink="http://www.w3.org/1999/xlink" x="0px" y="0px" viewBox="0 0 180 38"
	 style="enable-background:new 0 0 180 38;" xml:space="preserve">
<g>
	<polygon style="fill:#EC1161;" points="6.868,17.195 6.868,37.533 42.094,37.533 42.094,17.195 24.481,0.366 	"/>
</g>
<g>
	<polygon style="fill:#EC1161;" points="47.235,17.296 47.235,37.634 82.461,37.634 82.461,17.296 64.848,0.467 	"/>
</g>
<g>
	<path style="fill:#EC1161;" d="M95.611,5.429c-0.314-0.67-0.545-1.32-0.943-2.598c0.063,0.901,0.147,2.2,0.147,2.703v8.967
		c0,1.11,0.041,1.76,0.167,2.472h-1.906c0.126-0.775,0.168-1.383,0.168-2.472V3.544c0-1.048-0.042-1.718-0.168-2.493h2.43
		c0.126,0.628,0.378,1.383,0.691,2.074l5.175,11.543l5.154-11.543c0.355-0.817,0.586-1.467,0.712-2.074h2.409
		c-0.125,0.796-0.167,1.404-0.167,2.493v10.957c0,1.152,0.042,1.718,0.167,2.472h-1.906c0.126-0.712,0.168-1.467,0.168-2.472V5.408
		c0-0.586,0.063-1.718,0.146-2.577c-0.21,0.859-0.503,1.697-0.901,2.556l-4.273,9.407c-0.419,0.943-0.629,1.488-0.796,2.179h-1.487
		c-0.105-0.545-0.356-1.257-0.775-2.2L95.611,5.429z"/>
	<path style="fill:#EC1161;" d="M120.347,15.485c-0.816,0.733-1.215,1.006-1.927,1.278c-0.713,0.272-1.467,0.419-2.179,0.419
		c-2.305,0-3.709-1.194-3.709-3.185c0-1.676,1.048-2.891,2.996-3.436c1.236-0.356,2.242-0.482,4.818-0.544V8.802
		c0-1.424-0.9-2.158-2.64-2.158c-1.152,0-2.011,0.293-2.598,0.901c-0.272,0.293-0.439,0.586-0.649,1.215l-1.634-0.356
		c0.377-0.964,0.649-1.404,1.173-1.865c0.859-0.796,2.116-1.194,3.688-1.194c2.766,0,4.19,1.173,4.19,3.436v5.887
		c0,0.943,0.041,1.466,0.167,2.305h-1.697V15.485z M120.347,11.253c-2.492,0.063-3.687,0.209-4.63,0.607
		c-1.068,0.44-1.592,1.152-1.592,2.158c0,1.152,0.858,1.885,2.221,1.885c1.215,0,2.535-0.586,3.352-1.487
		c0.482-0.524,0.649-0.964,0.649-1.802V11.253z"/>
	<path style="fill:#EC1161;" d="M131.953,7.294c-0.796-0.251-1.173-0.314-1.697-0.314c-1.068,0-1.948,0.44-2.576,1.278
		c-0.503,0.649-0.691,1.152-0.775,2.095v4.274c0,0.943,0.042,1.529,0.146,2.347h-1.886c0.104-0.964,0.146-1.509,0.146-2.368V8.047
		c0-1.047-0.042-1.613-0.146-2.367h1.739v1.194c0,0.167,0,0.482-0.021,0.628c0.398-0.649,0.713-0.985,1.152-1.278
		c0.796-0.524,1.509-0.733,2.515-0.733c0.628,0,0.984,0.042,1.864,0.188L131.953,7.294z"/>
	<path style="fill:#EC1161;" d="M142.752,15.611c0-0.23,0-0.377,0.063-0.922c-1.048,1.718-2.347,2.493-4.232,2.493
		c-1.509,0-2.682-0.545-3.352-1.55c-0.378-0.608-0.587-1.425-0.587-2.431V8.027c0-0.943-0.042-1.676-0.146-2.347h1.885
		c-0.104,0.733-0.146,1.446-0.146,2.367v4.882c0,1.864,0.901,2.912,2.535,2.912c1.194,0,2.179-0.524,3.017-1.655
		c0.545-0.733,0.775-1.257,0.964-2.095V8.047c0-0.9-0.042-1.634-0.146-2.367h1.864c-0.104,0.733-0.146,1.404-0.146,2.367v6.558
		c0,0.943,0.042,1.529,0.168,2.368h-1.739V15.611z"/>
	<path style="fill:#EC1161;" d="M157.271,16.973c-0.084-0.44-0.23-0.985-0.42-1.571l-2.053-6.097
		c-0.042-0.105-0.146-0.545-0.356-1.32c-0.167,0.586-0.335,1.152-0.397,1.362l-2.032,6.055c-0.21,0.607-0.377,1.215-0.44,1.571
		h-1.466c-0.126-0.524-0.126-0.566-0.461-1.592l-2.242-7.228c-0.251-0.775-0.587-1.76-0.838-2.472h1.928
		c0.042,0.649,0.188,1.362,0.481,2.284l1.529,5.217c0.104,0.356,0.23,0.796,0.377,1.529c0.126-0.482,0.377-1.32,0.44-1.509
		l1.99-5.929c0.23-0.628,0.377-1.215,0.419-1.592h1.403c0.063,0.377,0.21,0.964,0.419,1.592l2.012,6.034
		c0.063,0.188,0.188,0.649,0.272,0.943c0.084,0.314,0.084,0.314,0.125,0.461c0.189-0.817,0.294-1.299,0.336-1.425l1.571-5.321
		c0.272-0.901,0.419-1.676,0.461-2.284h1.906c-0.168,0.44-0.44,1.278-0.817,2.472l-2.263,7.249
		c-0.272,0.838-0.355,1.152-0.439,1.571H157.271z"/>
	<path style="fill:#EC1161;" d="M171.435,15.485c-0.816,0.733-1.215,1.006-1.927,1.278c-0.713,0.272-1.467,0.419-2.179,0.419
		c-2.305,0-3.709-1.194-3.709-3.185c0-1.676,1.048-2.891,2.996-3.436c1.236-0.356,2.242-0.482,4.818-0.544V8.802
		c0-1.424-0.9-2.158-2.64-2.158c-1.152,0-2.011,0.293-2.598,0.901c-0.272,0.293-0.439,0.586-0.649,1.215l-1.634-0.356
		c0.377-0.964,0.649-1.404,1.173-1.865c0.859-0.796,2.116-1.194,3.688-1.194c2.766,0,4.19,1.173,4.19,3.436v5.887
		c0,0.943,0.041,1.466,0.167,2.305h-1.697V15.485z M171.435,11.253c-2.492,0.063-3.687,0.209-4.63,0.607
		c-1.068,0.44-1.592,1.152-1.592,2.158c0,1.152,0.858,1.885,2.221,1.885c1.215,0,2.535-0.586,3.352-1.487
		c0.482-0.524,0.649-0.964,0.649-1.802V11.253z"/>
	<path style="fill:#EC1161;" d="M94.06,33.376c0.146,0.775,0.314,1.152,0.733,1.529c0.523,0.481,1.361,0.733,2.431,0.733
		c1.822,0,2.975-0.775,2.975-2.012c0-0.586-0.21-1.026-0.649-1.299c-0.503-0.314-0.922-0.439-2.473-0.754
		c-1.676-0.356-2.388-0.607-3.101-1.09c-0.732-0.503-1.131-1.277-1.131-2.199c0-0.755,0.314-1.467,0.9-2.032
		c0.733-0.713,1.865-1.09,3.269-1.09c1.425,0,2.535,0.335,3.289,1.006c0.545,0.461,0.838,0.942,1.11,1.906l-1.655,0.272
		c-0.125-0.565-0.23-0.817-0.523-1.11c-0.481-0.523-1.236-0.796-2.179-0.796c-1.529,0-2.619,0.775-2.619,1.886
		c0,0.481,0.252,0.9,0.713,1.151c0.481,0.272,1.026,0.44,2.325,0.713c2.032,0.461,2.703,0.712,3.331,1.194
		c0.649,0.523,1.006,1.319,1.006,2.179c0,2.095-1.781,3.394-4.651,3.394c-1.906,0-3.373-0.565-4.147-1.634
		c-0.314-0.44-0.461-0.796-0.671-1.655L94.06,33.376z"/>
	<path style="fill:#EC1161;" d="M105.462,31.322c0.063,1.404,0.272,2.18,0.838,2.934c0.671,0.922,1.697,1.425,2.954,1.425
		c1.697,0,2.87-0.839,3.457-2.451l1.467,0.586c-0.398,0.88-0.671,1.257-1.152,1.739c-0.984,0.964-2.263,1.467-3.792,1.467
		c-3.289,0-5.363-2.305-5.363-5.93c0-3.582,2.053-5.929,5.195-5.929c2.703,0,4.651,1.739,5.07,4.546
		c0.021,0.23,0.104,1.048,0.146,1.613H105.462z M112.607,30.003c-0.126-1.174-0.44-1.928-1.11-2.577
		c-0.649-0.629-1.467-0.942-2.473-0.942c-1.277,0-2.346,0.649-2.975,1.822c-0.293,0.523-0.398,0.901-0.523,1.697H112.607z"/>
	<path style="fill:#EC1161;" d="M123.732,27.048c-0.796-0.252-1.173-0.314-1.697-0.314c-1.068,0-1.948,0.44-2.576,1.278
		c-0.503,0.649-0.691,1.152-0.775,2.095v4.274c0,0.942,0.042,1.529,0.146,2.346h-1.886c0.104-0.964,0.146-1.508,0.146-2.367v-6.558
		c0-1.047-0.042-1.613-0.146-2.367h1.739v1.194c0,0.167,0,0.481-0.021,0.628c0.398-0.649,0.713-0.984,1.152-1.277
		c0.796-0.523,1.509-0.733,2.515-0.733c0.628,0,0.984,0.042,1.864,0.188L123.732,27.048z"/>
	<path style="fill:#EC1161;" d="M127.636,25.435c0.104,0.545,0.313,1.236,0.649,2.053l2.388,6.16
		c0.105,0.272,0.336,0.942,0.461,1.361c0.168-0.523,0.294-0.88,0.482-1.341l2.388-6.181c0.377-0.942,0.524-1.466,0.629-2.053h1.97
		c-0.272,0.503-0.336,0.671-1.027,2.305l-2.933,7.061c-0.461,1.152-0.523,1.277-0.671,1.927h-1.654
		c-0.126-0.523-0.272-0.9-0.691-1.927l-2.912-7.061c-0.398-0.922-0.608-1.383-1.048-2.305H127.636z"/>
	<path style="fill:#EC1161;" d="M140.677,20.805v1.864h-2.032v-1.864H140.677z M140.593,25.435c-0.104,0.733-0.146,1.32-0.146,2.367
		v6.558c0,0.964,0.042,1.551,0.146,2.367h-1.886c0.104-0.9,0.146-1.487,0.146-2.367v-6.558c0-1.006-0.042-1.634-0.146-2.367H140.593
		z"/>
	<path style="fill:#EC1161;" d="M151.835,28.892c-0.607-1.635-1.613-2.409-3.164-2.409c-2.305,0-3.771,1.802-3.771,4.608
		c0,2.766,1.508,4.525,3.854,4.525c1.194,0,2.179-0.481,2.724-1.341c0.21-0.314,0.314-0.565,0.461-1.068l1.571,0.419
		c-0.293,0.755-0.503,1.152-0.859,1.613c-0.922,1.152-2.263,1.76-3.959,1.76c-3.289,0-5.405-2.283-5.405-5.866
		c0-3.624,2.095-5.991,5.3-5.991c1.739,0,3.143,0.67,4.044,1.927c0.293,0.398,0.481,0.733,0.733,1.341L151.835,28.892z"/>
	<path style="fill:#EC1161;" d="M157.12,31.322c0.063,1.404,0.272,2.18,0.838,2.934c0.671,0.922,1.697,1.425,2.954,1.425
		c1.697,0,2.87-0.839,3.457-2.451l1.467,0.586c-0.398,0.88-0.671,1.257-1.152,1.739c-0.984,0.964-2.263,1.467-3.792,1.467
		c-3.289,0-5.363-2.305-5.363-5.93c0-3.582,2.053-5.929,5.195-5.929c2.703,0,4.651,1.739,5.07,4.546
		c0.021,0.23,0.104,1.048,0.146,1.613H157.12z M164.265,30.003c-0.126-1.174-0.44-1.928-1.11-2.577
		c-0.649-0.629-1.467-0.942-2.473-0.942c-1.277,0-2.346,0.649-2.975,1.822c-0.293,0.523-0.398,0.901-0.523,1.697H164.265z"/>
</g>
</svg>
