<?xml version="1.0" encoding="iso-8859-1"?>
<!-- Generator: Adobe Illustrator 24.2.3, SVG Export Plug-In . SVG Version: 6.00 Build 0)  -->
<svg version="1.1" id="&#x30EC;&#x30A4;&#x30E4;&#x30FC;_1"
	 xmlns="http://www.w3.org/2000/svg" xmlns:xlink="http://www.w3.org/1999/xlink" x="0px" y="0px" viewBox="0 0 192 192"
	 style="enable-background:new 0 0 192 192;" xml:space="preserve">
<g>
	<rect x="0.5" y="0.5" style="fill:#EFEFEF;" width="192" height="192"/>
	<path style="fill:#FFFFFF;" d="M192,1v191H1V1H192 M193,0H0v193h193V0L193,0z"/>
</g>
<g>
	<g>
		<polygon style="fill:#E0E0E0;" points="36.545,67.08 36.545,99.366 92.464,99.366 92.464,67.08 64.505,40.365 		"/>
	</g>
	<g>
		<polygon style="fill:#E0E0E0;" points="100.625,67.24 100.625,99.525 156.545,99.525 156.545,67.24 128.585,40.524 		"/>
	</g>
</g>
<g>
	<path style="fill:#E0E0E0;" d="M42.962,122.737c-0.45-0.96-0.78-1.891-1.35-3.72c0.09,1.289,0.21,3.149,0.21,3.869v12.84
		c0,1.59,0.06,2.52,0.24,3.54h-2.73c0.18-1.11,0.24-1.98,0.24-3.54v-15.689c0-1.5-0.06-2.46-0.24-3.57h3.479
		c0.18,0.9,0.54,1.98,0.99,2.971l7.41,16.529l7.38-16.529c0.51-1.17,0.84-2.101,1.02-2.971h3.45c-0.18,1.141-0.24,2.011-0.24,3.57
		v15.689c0,1.649,0.06,2.46,0.24,3.54h-2.73c0.18-1.021,0.24-2.101,0.24-3.54v-13.02c0-0.84,0.09-2.46,0.21-3.689
		c-0.3,1.229-0.72,2.43-1.29,3.659l-6.12,13.47c-0.6,1.35-0.9,2.13-1.14,3.12h-2.13c-0.15-0.78-0.51-1.8-1.11-3.15L42.962,122.737z"
		/>
	<path style="fill:#E0E0E0;" d="M78.302,137.137c-1.17,1.05-1.74,1.439-2.76,1.83c-1.02,0.39-2.1,0.6-3.12,0.6
		c-3.3,0-5.31-1.71-5.31-4.56c0-2.4,1.5-4.141,4.29-4.92c1.77-0.51,3.21-0.69,6.9-0.78v-1.74c0-2.039-1.29-3.09-3.78-3.09
		c-1.65,0-2.88,0.42-3.72,1.29c-0.39,0.42-0.63,0.84-0.93,1.74l-2.34-0.51c0.54-1.38,0.93-2.01,1.68-2.67
		c1.23-1.141,3.03-1.71,5.28-1.71c3.96,0,6,1.68,6,4.92v8.43c0,1.35,0.06,2.1,0.24,3.3h-2.43V137.137z M78.302,131.076
		c-3.57,0.091-5.28,0.301-6.63,0.87c-1.53,0.63-2.28,1.65-2.28,3.09c0,1.65,1.23,2.7,3.18,2.7c1.74,0,3.63-0.84,4.8-2.13
		c0.69-0.75,0.93-1.38,0.93-2.58V131.076z"/>
	<path style="fill:#E0E0E0;" d="M94.838,125.407c-1.14-0.36-1.68-0.45-2.43-0.45c-1.53,0-2.79,0.63-3.689,1.83
		c-0.72,0.93-0.99,1.649-1.11,3v6.119c0,1.351,0.06,2.19,0.21,3.36h-2.7c0.15-1.38,0.21-2.16,0.21-3.391v-9.39
		c0-1.499-0.06-2.31-0.21-3.39h2.49v1.71c0,0.24,0,0.69-0.03,0.9c0.57-0.93,1.02-1.41,1.65-1.83c1.14-0.75,2.16-1.05,3.6-1.05
		c0.9,0,1.41,0.06,2.67,0.27L94.838,125.407z"/>
	<path style="fill:#E0E0E0;" d="M110.222,137.316c0-0.33,0-0.54,0.09-1.32c-1.5,2.46-3.359,3.57-6.06,3.57
		c-2.16,0-3.84-0.78-4.8-2.22c-0.54-0.87-0.84-2.04-0.84-3.48v-7.409c0-1.351-0.06-2.4-0.21-3.36h2.699
		c-0.149,1.05-0.209,2.07-0.209,3.39v6.99c0,2.67,1.289,4.17,3.629,4.17c1.71,0,3.12-0.75,4.32-2.37c0.78-1.05,1.11-1.8,1.38-3
		v-5.79c0-1.289-0.06-2.34-0.21-3.39h2.67c-0.15,1.05-0.21,2.01-0.21,3.39v9.39c0,1.351,0.06,2.19,0.24,3.391h-2.49V137.316z"/>
	<path style="fill:#E0E0E0;" d="M130.931,139.267c-0.12-0.63-0.33-1.41-0.6-2.25l-2.94-8.729c-0.06-0.15-0.21-0.78-0.51-1.891
		c-0.24,0.84-0.479,1.65-0.57,1.95l-2.909,8.67c-0.3,0.87-0.54,1.739-0.63,2.25h-2.101c-0.18-0.75-0.18-0.811-0.659-2.28
		l-3.21-10.35c-0.36-1.109-0.84-2.52-1.2-3.54h2.76c0.06,0.931,0.27,1.95,0.69,3.271l2.189,7.47c0.15,0.51,0.33,1.14,0.54,2.189
		c0.18-0.689,0.54-1.89,0.63-2.16l2.85-8.489c0.33-0.9,0.54-1.74,0.601-2.28h2.01c0.09,0.54,0.3,1.38,0.6,2.28l2.88,8.64
		c0.09,0.27,0.271,0.93,0.391,1.35c0.119,0.45,0.119,0.45,0.18,0.66c0.27-1.17,0.42-1.86,0.479-2.04l2.25-7.619
		c0.391-1.29,0.601-2.4,0.66-3.271h2.73c-0.24,0.63-0.631,1.83-1.17,3.54l-3.24,10.38c-0.39,1.2-0.51,1.649-0.63,2.25H130.931z"/>
	<path style="fill:#E0E0E0;" d="M151.13,137.137c-1.17,1.05-1.74,1.439-2.76,1.83c-1.021,0.39-2.101,0.6-3.12,0.6
		c-3.3,0-5.31-1.71-5.31-4.56c0-2.4,1.5-4.141,4.29-4.92c1.77-0.51,3.209-0.69,6.899-0.78v-1.74c0-2.039-1.29-3.09-3.78-3.09
		c-1.649,0-2.88,0.42-3.72,1.29c-0.39,0.42-0.63,0.84-0.93,1.74l-2.34-0.51c0.54-1.38,0.93-2.01,1.68-2.67
		c1.23-1.141,3.03-1.71,5.28-1.71c3.959,0,5.999,1.68,5.999,4.92v8.43c0,1.35,0.061,2.1,0.24,3.3h-2.43V137.137z M151.13,131.076
		c-3.57,0.091-5.28,0.301-6.63,0.87c-1.53,0.63-2.28,1.65-2.28,3.09c0,1.65,1.23,2.7,3.181,2.7c1.739,0,3.63-0.84,4.8-2.13
		c0.689-0.75,0.93-1.38,0.93-2.58V131.076z"/>
</g>
</svg>
