<svg xmlns="http://www.w3.org/2000/svg" viewBox="0 0 84 84"><path fill="#ec1161" d="M10 29.872V47.09h29.824V29.872L24.912 15.623zM44.176 29.957v17.219H74V29.957L59.088 15.708z"/><g fill="#ec1161"><path d="M13.245 59.556c-.24-.512-.417-1.008-.72-1.984.048.688.112 1.681.112 2.064v6.852c0 .848.032 1.344.128 1.889h-1.457c.096-.593.128-1.057.128-1.889v-8.372c0-.8-.032-1.313-.128-1.904h1.857c.096.479.288 1.057.528 1.584l3.954 8.82 3.938-8.82c.272-.624.448-1.12.544-1.584h1.841c-.096.608-.128 1.072-.128 1.904v8.372c0 .88.032 1.313.128 1.889h-1.457c.096-.545.128-1.121.128-1.889V59.54c0-.448.048-1.313.112-1.969-.16.656-.384 1.297-.688 1.953L18.8 66.711c-.32.721-.48 1.137-.608 1.665h-1.136c-.08-.416-.272-.961-.592-1.681l-3.219-7.139zM32.17 67.239c-.625.561-.929.769-1.473.977a4.728 4.728 0 01-1.665.32c-1.76 0-2.833-.913-2.833-2.434 0-1.28.8-2.209 2.289-2.625.944-.272 1.712-.368 3.682-.416v-.929c0-1.088-.688-1.648-2.017-1.648-.88 0-1.537.225-1.985.688-.208.224-.336.448-.496.929l-1.249-.272c.288-.736.496-1.072.896-1.425.656-.608 1.617-.912 2.817-.912 2.113 0 3.202.896 3.202 2.625v4.498c0 .72.032 1.12.128 1.761H32.17v-1.137zm0-3.233c-1.905.048-2.817.16-3.538.464-.816.337-1.216.881-1.216 1.649 0 .88.656 1.44 1.696 1.44.929 0 1.937-.448 2.561-1.137.368-.4.497-.736.497-1.377v-1.039zM41.06 60.98c-.608-.192-.896-.24-1.297-.24-.816 0-1.488.337-1.969.977-.384.496-.528.881-.592 1.601v3.266c0 .72.032 1.168.112 1.793h-1.441c.08-.736.112-1.152.112-1.809v-5.011c0-.8-.032-1.232-.112-1.809h1.329v.912c0 .128 0 .368-.016.48.304-.496.544-.752.88-.977.608-.399 1.153-.56 1.921-.56.48 0 .752.031 1.425.144l-.352 1.233zM49.333 67.335c0-.176 0-.288.048-.704-.8 1.313-1.792 1.905-3.232 1.905-1.153 0-2.049-.417-2.562-1.185-.288-.465-.448-1.089-.448-1.857v-3.953c0-.721-.032-1.28-.112-1.793h1.44a12.464 12.464 0 00-.111 1.809v3.729c0 1.425.688 2.226 1.937 2.226.912 0 1.665-.4 2.305-1.265.416-.561.593-.961.736-1.601v-3.09c0-.688-.032-1.248-.111-1.809h1.424c-.08.561-.111 1.072-.111 1.809v5.011c0 .72.031 1.168.128 1.809h-1.329v-1.041zM60.446 68.376a10.515 10.515 0 00-.32-1.201l-1.568-4.657c-.032-.08-.112-.416-.272-1.009-.128.448-.256.881-.304 1.04l-1.553 4.626c-.16.465-.288.929-.336 1.201h-1.121c-.096-.4-.096-.433-.352-1.217l-1.713-5.522a81 81 0 00-.641-1.889h1.473c.032.496.145 1.04.368 1.745l1.169 3.985c.08.272.176.608.288 1.168.096-.368.288-1.008.336-1.152l1.521-4.529c.176-.48.288-.929.32-1.217h1.072c.048.288.16.736.32 1.217l1.536 4.609c.049.145.145.496.208.721.064.24.064.24.097.352.144-.624.224-.992.256-1.088l1.2-4.065c.208-.688.32-1.281.353-1.745h1.456c-.128.336-.336.977-.624 1.889l-1.729 5.538c-.208.641-.272.881-.336 1.201h-1.104zM71.294 67.239c-.624.561-.929.769-1.473.977s-1.12.32-1.665.32c-1.761 0-2.833-.913-2.833-2.434 0-1.28.801-2.209 2.289-2.625.944-.272 1.713-.368 3.682-.416v-.929c0-1.088-.688-1.648-2.017-1.648-.881 0-1.537.225-1.985.688-.208.224-.336.448-.496.929l-1.248-.272c.288-.736.496-1.072.896-1.425.656-.608 1.617-.912 2.817-.912 2.113 0 3.201.896 3.201 2.625v4.498c0 .72.032 1.12.128 1.761h-1.296v-1.137zm0-3.233c-1.905.048-2.817.16-3.538.464-.815.337-1.216.881-1.216 1.649 0 .88.656 1.44 1.696 1.44.929 0 1.937-.448 2.562-1.137.368-.4.496-.736.496-1.377v-1.039z"/></g></svg>